<svg width="72" height="72" viewBox="0 0 72 72" fill="none" xmlns="http://www.w3.org/2000/svg">
<path d="M27.282 63.0181C25.3956 62.9156 23.6206 62.093 22.323 60.7201C20.7708 59.2267 19.3856 57.569 18.192 55.7761C16.3274 53.1061 14.8536 50.1836 13.815 47.0971C12.6386 43.7766 12.0192 40.2845 11.982 36.7621C11.8916 33.3057 12.7485 29.8904 14.46 26.8861C15.7127 24.7204 17.4995 22.9118 19.65 21.6331C21.7766 20.3598 24.2034 19.6744 26.682 19.6471C28.5504 19.7576 30.3865 20.1847 32.112 20.9101C33.4876 21.5153 34.9356 21.9409 36.42 22.1761C38.058 21.8329 39.6586 21.3305 41.199 20.6761C43.022 19.9642 44.9521 19.5656 46.908 19.4971C47.169 19.4971 47.427 19.4971 47.676 19.5271C51.9646 19.6514 55.9534 21.7566 58.476 25.2271C54.4649 27.3716 52.002 31.5909 52.107 36.1381C52.0673 39.5868 53.5054 42.8877 56.058 45.2071C57.2067 46.3016 58.5443 47.1787 60.006 47.7961C59.706 48.6961 59.361 49.5661 58.995 50.4421C58.163 52.3779 57.1368 54.2244 55.932 55.9531C54.7946 57.6846 53.4706 59.2862 51.984 60.7291C50.6269 62.0757 48.8178 62.8701 46.908 62.9581C45.2891 62.8862 43.6987 62.5065 42.222 61.8391C40.6296 61.1453 38.9183 60.7654 37.182 60.7201C35.3966 60.7551 33.6347 61.133 31.992 61.8331C30.5731 62.4732 29.0572 62.8717 27.507 63.0121L27.282 63.0181ZM36.732 19.4971C36.507 19.4971 36.282 19.4971 36.057 19.4701C36.0096 19.113 35.9846 18.7533 35.982 18.3931C36.0801 15.3965 37.2512 12.5348 39.282 10.3291C40.417 9.06181 41.7927 8.03287 43.329 7.30207C44.7626 6.56407 46.3293 6.12037 47.937 5.99707C47.982 6.39007 47.982 6.77407 47.982 7.14007C47.9395 10.0895 46.8313 12.924 44.862 15.1201C42.9316 17.7084 39.9555 19.3107 36.732 19.4971Z" fill="url(#paint0_linear_6_350)"/>
<defs>
<linearGradient id="paint0_linear_6_350" x1="-1.73075" y1="9.69219" x2="57.4616" y2="67.4999" gradientUnits="userSpaceOnUse">
<stop stop-color="#FB3665"/>
<stop offset="0.697917" stop-color="#6152D1"/>
<stop offset="1" stop-color="#1E5EFF"/>
</linearGradient>
</defs>
</svg>
