<svg width="40" height="40" viewBox="0 0 40 40" fill="none" xmlns="http://www.w3.org/2000/svg">
<path d="M20.2358 10.9831C19.8458 11.1935 19.6027 11.5936 19.6027 12.0287L19.6027 18.8044L6.22383 18.8044C5.54827 18.8044 5 19.34 5 19.9999C5 20.6598 5.54827 21.1953 6.22383 21.1953L19.6027 21.1953L19.6027 27.9711C19.6027 28.4078 19.8458 28.8079 20.2358 29.0167C20.6258 29.2287 21.1023 29.2143 21.4792 28.9832L34.4289 21.012C34.7846 20.7921 35 20.4111 35 19.9999C35 19.5886 34.7846 19.2077 34.4289 18.9877L21.4792 11.0166C21.2801 10.8954 21.0533 10.8333 20.8265 10.8333C20.6242 10.8333 20.4202 10.8843 20.2358 10.9831Z" fill="#26210F"/>
</svg>
