<svg width="40" height="40" viewBox="0 0 40 40" fill="none" xmlns="http://www.w3.org/2000/svg">
<path d="M19.7642 29.0169C20.1542 28.8065 20.3973 28.4064 20.3973 27.9713L20.3973 21.1956L33.7762 21.1956C34.4517 21.1956 35 20.66 35 20.0001C35 19.3402 34.4517 18.8047 33.7762 18.8047L20.3973 18.8047L20.3973 12.0289C20.3973 11.5922 20.1542 11.1921 19.7642 10.9833C19.3742 10.7713 18.8977 10.7857 18.5208 11.0168L5.57112 18.988C5.21539 19.2079 5 19.5889 5 20.0001C5 20.4114 5.21539 20.7923 5.57112 21.0123L18.5208 28.9834C18.7199 29.1046 18.9467 29.1667 19.1735 29.1667C19.3758 29.1667 19.5798 29.1157 19.7642 29.0169Z" fill="#26210F"/>
</svg>
