<svg width="28" height="28" viewBox="0 0 28 28" fill="none" xmlns="http://www.w3.org/2000/svg">
<path d="M2.33563 14.0022C2.33699 19.7415 6.51044 24.6283 12.1788 25.5277V17.3739H9.21897V14.0022H12.1823V11.4356C12.0498 10.2194 12.4652 9.00725 13.3159 8.12798C14.1665 7.24871 15.3642 6.7934 16.5841 6.88556C17.4598 6.8997 18.3332 6.97768 19.1975 7.11889V9.98772H17.7228C17.2151 9.92123 16.7047 10.0889 16.3354 10.4435C15.966 10.7981 15.7777 11.3013 15.8235 11.8112V14.0022H19.0563L18.5395 17.3751H15.8235V25.5277C21.9537 24.5589 26.2524 18.9603 25.6054 12.7878C24.9584 6.61532 19.5921 2.02981 13.3943 2.35326C7.19639 2.67672 2.33662 7.79592 2.33563 14.0022Z" fill="white"/>
</svg>
