<svg width="28" height="28" viewBox="0 0 28 28" fill="none" xmlns="http://www.w3.org/2000/svg">
<path d="M14.0023 24.5479C11.1323 24.5479 10.794 24.5327 9.67399 24.4837C8.80059 24.455 7.93849 24.2774 7.12482 23.9587C5.71702 23.4108 4.60382 22.2972 4.05649 20.8892C3.75001 20.0726 3.58471 19.2098 3.56765 18.3377C3.50232 17.22 3.50232 16.8537 3.50232 14.0059C3.50232 11.1277 3.51749 10.7917 3.56765 9.67753C3.58508 8.80663 3.75038 7.94503 4.05649 7.12953C4.60322 5.71964 5.71823 4.60506 7.12832 4.05886C7.9434 3.7511 8.80522 3.58536 9.67632 3.56886C10.7905 3.50586 11.1568 3.50586 14.0023 3.50586C16.8957 3.50586 17.2282 3.52103 18.3307 3.56886C19.204 3.5855 20.0681 3.75122 20.8857 4.05886C22.2953 4.60568 23.4101 5.72005 23.9575 7.12953C24.2691 7.95692 24.4353 8.83199 24.4487 9.71603C24.514 10.8337 24.514 11.1989 24.514 14.0455C24.514 16.8922 24.4977 17.2655 24.4487 18.3704C24.4313 19.2433 24.2656 20.1068 23.9587 20.9242C23.4099 22.3332 22.2951 23.4472 20.8857 23.9949C20.0693 24.3007 19.2069 24.466 18.3353 24.4837C17.2212 24.5479 16.856 24.5479 14.0023 24.5479ZM13.9627 5.35269C11.109 5.35269 10.8127 5.36669 9.69849 5.41686C9.03347 5.42567 8.37488 5.54839 7.75132 5.77969C6.83053 6.13204 6.10192 6.85768 5.74582 7.77703C5.51274 8.40737 5.39 9.07317 5.38299 9.74519C5.32115 10.8757 5.32115 11.172 5.32115 14.0059C5.32115 16.8059 5.33165 17.1454 5.38299 18.2689C5.39343 18.9341 5.5161 19.5928 5.74582 20.2172C6.10244 21.1359 6.83093 21.861 7.75132 22.2134C8.37445 22.4462 9.03331 22.569 9.69849 22.5762C10.8278 22.6415 11.1253 22.6415 13.9627 22.6415C16.8245 22.6415 17.1208 22.6275 18.2257 22.5762C18.8911 22.5681 19.5502 22.4454 20.174 22.2134C21.0892 21.858 21.8131 21.1345 22.169 20.2195C22.4016 19.5886 22.5243 18.9226 22.5318 18.2502H22.5447C22.5948 17.1349 22.5948 16.8374 22.5948 13.9872C22.5948 11.137 22.582 10.8372 22.5318 9.72303C22.5214 9.05855 22.3987 8.40062 22.169 7.77703C21.8139 6.86069 21.0899 6.13587 20.174 5.77969C19.5503 5.54722 18.8912 5.42447 18.2257 5.41686C17.0975 5.35269 16.8023 5.35269 13.9627 5.35269ZM14.0023 19.3947C11.8206 19.3961 9.85297 18.083 9.01699 16.0679C8.18101 14.0527 8.64138 11.7324 10.1834 10.1891C11.7254 8.64572 14.0453 8.18334 16.0612 9.01758C18.0771 9.85182 19.3918 11.8183 19.3923 14C19.3891 16.9763 16.9786 19.3889 14.0023 19.3947ZM14.0023 10.4977C12.0693 10.4977 10.5023 12.0647 10.5023 13.9977C10.5023 15.9307 12.0693 17.4977 14.0023 17.4977C15.9353 17.4977 17.5023 15.9307 17.5023 13.9977C17.4978 12.0666 15.9335 10.5022 14.0023 10.4977ZM19.6023 9.66586C18.9086 9.66328 18.348 9.09955 18.3493 8.40587C18.3506 7.71219 18.9133 7.15053 19.607 7.15053C20.3007 7.15053 20.8634 7.71218 20.8647 8.40586C20.865 8.74053 20.732 9.06155 20.4951 9.29798C20.2583 9.53441 19.937 9.66679 19.6023 9.66586Z" fill="white"/>
</svg>
