<svg width="28" height="28" viewBox="0 0 28 28" fill="none" xmlns="http://www.w3.org/2000/svg">
<path d="M23.3275 7.80274C24.3734 7.17751 25.1559 6.19301 25.529 5.03307C24.5463 5.61617 23.4711 6.02692 22.3498 6.24757C20.7954 4.60318 18.3324 4.20302 16.3373 5.27067C14.3422 6.33832 13.3088 8.60947 13.8145 10.8151C9.78906 10.613 6.03865 8.71147 3.49652 5.58373C2.16983 7.87206 2.8478 10.7973 5.04585 12.2687C4.25101 12.2432 3.4738 12.028 2.77902 11.6411C2.77902 11.6621 2.77902 11.6831 2.77902 11.7041C2.77948 14.0877 4.45945 16.141 6.79585 16.6134C6.05859 16.814 5.28526 16.8435 4.53485 16.6997C5.19192 18.7382 7.07066 20.1347 9.21202 20.1764C7.43849 21.5684 5.24824 22.3233 2.99368 22.3196C2.59407 22.3201 2.19476 22.2972 1.79785 22.2507C4.08731 23.7219 6.75195 24.5028 9.47335 24.5001C13.2595 24.5261 16.8981 23.0335 19.5752 20.3561C22.2523 17.6787 23.7447 14.04 23.7183 10.2539C23.7183 10.0369 23.7133 9.82107 23.7032 9.6064C24.6837 8.89777 25.53 8.01991 26.2022 7.01407C25.2887 7.41898 24.3197 7.68481 23.3275 7.80274Z" fill="white"/>
</svg>
