<svg width="28" height="28" viewBox="0 0 28 28" fill="none" xmlns="http://www.w3.org/2000/svg">
<path d="M14.007 22.1806H13.9837C13.9113 22.1806 6.67448 22.1666 4.84865 21.6708C3.84464 21.4003 3.06056 20.6157 2.79065 19.6116C2.46233 17.7593 2.30378 15.881 2.31698 13.9999C2.3085 12.1158 2.47134 10.2347 2.80348 8.38009C3.08081 7.37502 3.86145 6.58686 4.86382 6.29992C6.63948 5.83325 13.6768 5.83325 13.9755 5.83325H14C14.0735 5.83325 21.329 5.84725 23.1362 6.34309C24.1381 6.61493 24.9205 7.39786 25.1918 8.39992C25.5306 10.2591 25.6896 12.1465 25.6667 14.0361C25.6748 15.918 25.5116 17.7967 25.179 19.6489C24.9056 20.6518 24.121 21.4346 23.1175 21.7058C21.3442 22.1759 14.3057 22.1806 14.007 22.1806ZM11.6737 10.5058L11.6678 17.5058L17.7485 14.0058L11.6737 10.5058Z" fill="white"/>
</svg>
